<svg width="50" height="61" viewBox="0 0 50 61" fill="none" xmlns="http://www.w3.org/2000/svg">
<path d="M9 61H45C47.7601 60.9966 49.9967 58.7227 50 55.9167V9.15C49.9957 6.70198 48.2759 4.60476 45.908 4.1602C45.4707 1.75288 43.4079 0.00433978 41 0H14C13.7348 5.7584e-05 13.4805 0.107208 13.293 0.297883L0.293 13.5145C0.105451 13.7052 5.664e-05 13.9637 0 14.2333V51.85C0.00426864 54.298 1.72415 56.3952 4.092 56.8398C4.52927 59.2471 6.59211 60.9957 9 61ZM48 9.15V55.9167C48 57.6011 46.6569 58.9667 45 58.9667H9C7.73321 58.9613 6.60625 58.1476 6.184 56.9333H41C43.7601 56.93 45.9967 54.6561 46 51.85V6.28707C47.1944 6.71636 47.9947 7.8621 48 9.15ZM13 3.4709V10.1667C13 11.8511 11.6569 13.2167 10 13.2167H3.414L13 3.4709ZM2 51.85V15.25H10C12.7601 15.2466 14.9967 12.9727 15 10.1667V2.03333H41C42.6569 2.03333 44 3.39886 44 5.08333V51.85C44 53.5345 42.6569 54.9 41 54.9H5C3.34315 54.9 2 53.5345 2 51.85Z" fill="#FF8A00"/>
<path d="M29 6.1H35C35.5523 6.1 36 5.64482 36 5.08333C36 4.52185 35.5523 4.06667 35 4.06667H29C28.4477 4.06667 28 4.52185 28 5.08333C28 5.64482 28.4477 6.1 29 6.1Z" fill="#FF8A00"/>
<path d="M39 6.1H41C41.5523 6.1 42 5.64482 42 5.08333C42 4.52185 41.5523 4.06667 41 4.06667H39C38.4477 4.06667 38 4.52185 38 5.08333C38 5.64482 38.4477 6.1 39 6.1Z" fill="#FF8A00"/>
<path d="M6 51.85H7C7.55228 51.85 8 51.3949 8 50.8334C8 50.2719 7.55228 49.8167 7 49.8167H6C5.44771 49.8167 5 50.2719 5 50.8334C5 51.3949 5.44771 51.85 6 51.85Z" fill="#FF8A00"/>
<path d="M40 49.8167H31C30.4477 49.8167 30 50.2719 30 50.8334C30 51.3949 30.4477 51.85 31 51.85H40C40.5523 51.85 41 51.3949 41 50.8334C41 50.2719 40.5523 49.8167 40 49.8167Z" fill="#FF8A00"/>
<path d="M26 49.8167H11C10.4477 49.8167 10 50.2719 10 50.8334C10 51.3949 10.4477 51.85 11 51.85H26C26.5523 51.85 27 51.3949 27 50.8334C27 50.2719 26.5523 49.8167 26 49.8167Z" fill="#FF8A00"/>
<path d="M11 37.6167H15V41.6833C15.0033 44.4894 17.24 46.7633 20 46.7667H26C28.7601 46.7633 30.9967 44.4894 31 41.6833V37.6167H35C37.7601 37.6133 39.9967 35.3394 40 32.5333V26.4333C39.9967 23.6273 37.7601 21.3534 35 21.35H31V17.2833C30.9967 14.4773 28.7601 12.2034 26 12.2H20C17.24 12.2034 15.0033 14.4773 15 17.2833V21.35H11C8.23995 21.3534 6.00331 23.6273 6 26.4333V32.5333C6.00331 35.3394 8.23995 37.6133 11 37.6167ZM35 23.3833C36.6569 23.3833 38 24.7489 38 26.4333V32.5333C38 34.2178 36.6569 35.5833 35 35.5833H23C22.4477 35.5833 22 36.0385 22 36.6C22 37.1615 22.4477 37.6167 23 37.6167H29V41.6833C29 43.3678 27.6569 44.7333 26 44.7333H20C18.3431 44.7333 17 43.3678 17 41.6833V33.55C17 31.8655 18.3431 30.5 20 30.5H26C28.7601 30.4966 30.9967 28.2227 31 25.4167V23.3833H35ZM8 26.4333C8 24.7489 9.34315 23.3833 11 23.3833H23C23.5523 23.3833 24 22.9282 24 22.3667C24 21.8052 23.5523 21.35 23 21.35H17V17.2833C17 15.5989 18.3431 14.2333 20 14.2333H26C27.6569 14.2333 29 15.5989 29 17.2833V25.4167C29 27.1011 27.6569 28.4667 26 28.4667H20C17.24 28.47 15.0033 30.744 15 33.55V35.5833H11C9.34315 35.5833 8 34.2178 8 32.5333V26.4333Z" fill="#FF8A00"/>
<path d="M21 19.3167C21.5523 19.3167 22 18.8615 22 18.3C22 17.7385 21.5523 17.2833 21 17.2833C20.4477 17.2833 20 17.7385 20 18.3C20 18.8615 20.4477 19.3167 21 19.3167Z" fill="#FF8A00"/>
<path d="M25 41.6833C25.5523 41.6833 26 41.2282 26 40.6667C26 40.1052 25.5523 39.65 25 39.65C24.4477 39.65 24 40.1052 24 40.6667C24 41.2282 24.4477 41.6833 25 41.6833Z" fill="#FF8A00"/>
</svg>
