<svg width="57" height="57" viewBox="0 0 57 57" fill="none" xmlns="http://www.w3.org/2000/svg">
<path d="M19.3065 32.1774C20.8271 32.1774 22.0645 30.94 22.0645 29.4194C22.0645 27.8987 20.8271 26.6613 19.3065 26.6613C17.7858 26.6613 16.5484 27.8987 16.5484 29.4194C16.5484 30.94 17.7858 32.1774 19.3065 32.1774ZM19.3065 28.5C19.8139 28.5 20.2258 28.9128 20.2258 29.4194C20.2258 29.9268 19.8139 30.3387 19.3065 30.3387C18.799 30.3387 18.3871 29.9268 18.3871 29.4194C18.3871 28.9128 18.799 28.5 19.3065 28.5Z" fill="#FF8A00"/>
<path d="M14.7097 29.4194C14.7097 27.8987 13.4722 26.6613 11.9516 26.6613C10.431 26.6613 9.19355 27.8987 9.19355 29.4194C9.19355 30.94 10.431 32.1774 11.9516 32.1774C13.4722 32.1774 14.7097 30.94 14.7097 29.4194ZM11.9516 30.3387C11.4441 30.3387 11.0323 29.9268 11.0323 29.4194C11.0323 28.9128 11.4441 28.5 11.9516 28.5C12.4591 28.5 12.871 28.9128 12.871 29.4194C12.871 29.9268 12.4591 30.3387 11.9516 30.3387Z" fill="#FF8A00"/>
<path d="M54.2419 0H17.4677C15.9471 0 14.7097 1.23745 14.7097 2.75806V18.48C12.8388 18.8615 11.3945 20.3876 11.1021 22.2888C9.51716 22.6823 8.13261 23.586 7.13879 24.8226H6.43548C3.90082 24.8226 1.83871 26.8847 1.83871 29.4194C1.83871 31.954 3.90082 34.0161 6.43548 34.0161H7.13879C8.1179 35.2343 9.47579 36.1297 11.0323 36.5324V38.6129H9.04737L8.88464 38.6763C8.29166 38.9099 7.77315 39.1939 7.31255 39.512C6.52926 38.9384 5.57956 38.6129 4.59677 38.6129C2.06211 38.6129 0 40.675 0 43.2097C0 44.7055 0.729048 46.0238 1.83871 46.8632V57H29.4194V46.8632C30.2955 46.2003 30.9381 45.2433 31.1652 44.129H54.2419C55.7625 44.129 57 42.8916 57 41.371V2.75806C57 1.23745 55.7625 0 54.2419 0ZM17.4677 1.83871H54.2419C54.7494 1.83871 55.1613 2.2515 55.1613 2.75806V7.35484H16.5484V2.75806C16.5484 2.2515 16.9603 1.83871 17.4677 1.83871ZM15.629 20.2258C16.826 20.2258 17.8373 20.9971 18.2179 22.0645H13.041C13.4207 20.9971 14.432 20.2258 15.629 20.2258ZM3.67742 29.4194C3.67742 28.033 4.70894 26.8939 6.04292 26.7008C5.70644 27.5429 5.51613 28.4586 5.51613 29.4194C5.51613 30.3801 5.70644 31.2958 6.04292 32.1379C4.70894 31.9448 3.67742 30.8057 3.67742 29.4194ZM7.35484 29.4194C7.35484 26.3772 9.82882 23.9032 12.871 23.9032H18.3871C21.4292 23.9032 23.9032 26.3772 23.9032 29.4194C23.9032 32.4615 21.4292 34.9355 18.3871 34.9355H12.871C9.82882 34.9355 7.35484 32.4615 7.35484 29.4194ZM25.2151 26.7008C26.5491 26.8939 27.5806 28.033 27.5806 29.4194C27.5806 30.8057 26.5491 31.9448 25.2151 32.1379C25.5516 31.2958 25.7419 30.3801 25.7419 29.4194C25.7419 28.4586 25.5516 27.5429 25.2151 26.7008ZM18.3871 36.7742V39.1516L18.1177 39.421C17.4622 40.0765 16.5557 40.4516 15.629 40.4516C14.7023 40.4516 13.7958 40.0765 13.1403 39.421L12.871 39.1516V36.7742H18.3871ZM9.40224 40.4516H11.571L11.8404 40.721C12.8379 41.7185 14.2187 42.2903 15.629 42.2903C17.0393 42.2903 18.4202 41.7185 19.4177 40.721L19.6871 40.4516H21.8558C24.3179 41.496 25.0837 43.6519 24.7371 45.3858L23.1236 55.1613H8.13445L6.51547 45.3554C6.17439 43.651 6.94021 41.496 9.40224 40.4516ZM4.59677 40.4516C5.07024 40.4516 5.51521 40.5812 5.91605 40.801C4.72456 42.2931 4.39452 44.1254 4.7071 45.6855L4.75123 45.9549C4.69974 45.9576 4.64918 45.9677 4.59677 45.9677C3.07616 45.9677 1.83871 44.7303 1.83871 43.2097C1.83871 41.6891 3.07616 40.4516 4.59677 40.4516ZM3.67742 47.7136C3.97437 47.7743 4.28235 47.8064 4.59677 47.8064C4.75031 47.8064 4.90016 47.7835 5.05094 47.7688L6.27184 55.1613H3.67742V47.7136ZM27.5806 55.1613H24.9862L26.2062 47.7688C26.3579 47.7835 26.5078 47.8064 26.6613 47.8064C26.9757 47.8064 27.2837 47.7743 27.5806 47.7136V55.1613ZM26.6613 45.9677C26.6089 45.9677 26.5583 45.9576 26.5059 45.9549L26.5455 45.7168C26.8617 44.1373 26.5335 42.2977 25.3411 40.8028C25.7419 40.5812 26.1878 40.4516 26.6613 40.4516C28.1819 40.4516 29.4194 41.6891 29.4194 43.2097C29.4194 44.7303 28.1819 45.9677 26.6613 45.9677ZM54.2419 42.2903H31.1652C30.7377 40.1951 28.8815 38.6129 26.6613 38.6129C25.6794 38.6129 24.7288 38.9384 23.9455 39.513C23.4849 39.1949 22.9664 38.9099 22.3734 38.6773L22.2107 38.6129H20.2258V36.5324C21.7823 36.1297 23.1402 35.2343 24.1193 34.0161H24.8226C27.3572 34.0161 29.4194 31.954 29.4194 29.4194C29.4194 26.8847 27.3572 24.8226 24.8226 24.8226H24.1193C23.1255 23.586 21.7409 22.6823 20.155 22.2888C19.8627 20.3876 18.4184 18.8615 16.5475 18.48V9.19355H55.1604V41.371C55.1613 41.8784 54.7494 42.2903 54.2419 42.2903Z" fill="#FF8A00"/>
<path d="M22.0645 3.67742H23.9032V5.51613H22.0645V3.67742Z" fill="#FF8A00"/>
<path d="M18.3871 3.67742H20.2258V5.51613H18.3871V3.67742Z" fill="#FF8A00"/>
<path d="M25.7419 3.67742H27.5806V5.51613H25.7419V3.67742Z" fill="#FF8A00"/>
<path d="M20.2258 13.7903C20.2258 14.2969 19.8139 14.7097 19.3065 14.7097H18.3871V16.5484H19.3065C19.8139 16.5484 20.2258 16.9612 20.2258 17.4677C20.2258 18.9884 21.4633 20.2258 22.9839 20.2258H23.9032V18.3871H22.9839C22.4764 18.3871 22.0645 17.9743 22.0645 17.4677C22.0645 16.7589 21.7878 16.1181 21.3474 15.629C21.7887 15.1399 22.0645 14.4991 22.0645 13.7903C22.0645 13.2838 22.4764 12.871 22.9839 12.871H23.9032V11.0323H22.9839C21.4633 11.0323 20.2258 12.2697 20.2258 13.7903Z" fill="#FF8A00"/>
<path d="M51.4839 24.8226C51.4839 23.302 50.2464 22.0645 48.7258 22.0645H47.8064V23.9032H48.7258C49.2333 23.9032 49.6452 24.316 49.6452 24.8226C49.6452 25.5314 49.9219 26.1722 50.3623 26.6613C49.921 27.1504 49.6452 27.7912 49.6452 28.5C49.6452 29.0066 49.2333 29.4194 48.7258 29.4194H47.8064V31.2581H48.7258C50.2464 31.2581 51.4839 30.0206 51.4839 28.5C51.4839 27.9934 51.8957 27.5806 52.4032 27.5806H53.3226V25.7419H52.4032C51.8957 25.7419 51.4839 25.3291 51.4839 24.8226Z" fill="#FF8A00"/>
<path d="M25.7419 11.0323H45.9677V12.871H25.7419V11.0323Z" fill="#FF8A00"/>
<path d="M25.7419 14.7097H45.9677V16.5484H25.7419V14.7097Z" fill="#FF8A00"/>
<path d="M25.7419 18.3871H45.9677V20.2258H25.7419V18.3871Z" fill="#FF8A00"/>
<path d="M31.2581 22.0645H45.9677V23.9032H31.2581V22.0645Z" fill="#FF8A00"/>
<path d="M31.2581 25.7419H45.9677V27.5806H31.2581V25.7419Z" fill="#FF8A00"/>
<path d="M31.2581 29.4194H45.9677V31.2581H31.2581V29.4194Z" fill="#FF8A00"/>
<path d="M40.4838 40.1202L43.2409 32.768L44.9628 33.4137L42.2057 40.766L40.4838 40.1202Z" fill="#FF8A00"/>
<path d="M45.3178 34.6661L47.4258 36.7742L45.3178 38.8823L46.6177 40.1822L50.0258 36.7742L46.6177 33.3662L45.3178 34.6661Z" fill="#FF8A00"/>
<path d="M37.9629 33.3662L34.5549 36.7742L37.9629 40.1822L39.2629 38.8823L37.1548 36.7742L39.2629 34.6661L37.9629 33.3662Z" fill="#FF8A00"/>
<path d="M22.0645 44.129H9.19355V53.3226H22.0645V44.129ZM20.2258 51.4839H11.0323V45.9677H20.2258V51.4839Z" fill="#FF8A00"/>
</svg>
