<svg width="55" height="54" viewBox="0 0 55 54" fill="none" xmlns="http://www.w3.org/2000/svg">
<path d="M49.6289 8.01541H49.1992V4.42969C49.1992 1.98714 47.1753 0 44.6875 0C42.1997 0 40.1758 1.98714 40.1758 4.42969V8.01541H36.2728C35.6796 8.01541 35.1986 8.4876 35.1986 9.0701C35.1986 9.65261 35.6796 10.1248 36.2728 10.1248H40.1758V12.5156C40.1758 13.0981 40.6568 13.5702 41.25 13.5702C41.8432 13.5702 42.3242 13.0981 42.3242 12.5156V7.91016H47.0508V25.9587H42.3242V20.0391C42.3242 19.4566 41.8432 18.9844 41.25 18.9844C40.6568 18.9844 40.1758 19.4566 40.1758 20.0391V27.0134C40.1758 27.202 40.2272 27.3872 40.325 27.5496L42.8059 31.6757H21.6634C21.0703 31.6757 20.5892 32.148 20.5892 32.7304C20.5892 33.3128 21.0703 33.7851 21.6634 33.7851H48.9844C49.5776 33.7851 50.0586 33.3128 50.0586 32.7304C50.0586 32.148 49.5776 31.6757 48.9844 31.6757H46.5691L49.05 27.5496C49.1477 27.3872 49.1992 27.202 49.1992 27.0134V10.1248H49.6289C51.4059 10.1248 52.8516 11.5442 52.8516 13.2889V35.8592H7.94922V28.0681H29.4336C31.4475 28.0681 33.0859 26.4595 33.0859 24.4821V3.58594C33.0859 1.60861 31.4475 0 29.4336 0H3.65234C1.6384 0 0 1.60861 0 3.58594V24.4821C0 26.4595 1.6384 28.0681 3.65234 28.0681H5.80078V39.867C5.80078 42.7747 8.21025 45.1404 11.1719 45.1404H25.0332V47.6741C22.1199 47.7296 19.7669 50.0719 19.7669 52.9453C19.7669 53.5277 20.2479 54 20.8411 54H39.9675C40.5607 54 41.0417 53.5277 41.0417 52.9453C41.0417 50.0719 38.6887 47.7296 35.7755 47.6741V45.1404H49.6289C52.5905 45.1404 55 42.7747 55 39.867V13.2889C55 10.3811 52.5905 8.01541 49.6289 8.01541ZM46.2434 28.0681L44.6875 30.6558L43.1316 28.0681H46.2434ZM47.0508 5.80078H42.3242V4.42969C42.3242 3.15025 43.3844 2.10938 44.6875 2.10938C45.9906 2.10938 47.0508 3.15025 47.0508 4.42969V5.80078ZM2.14844 3.58594C2.14844 2.77172 2.82305 2.10938 3.65234 2.10938H29.4336C30.2629 2.10938 30.9375 2.77172 30.9375 3.58594V7.59375H2.14844V3.58594ZM3.65234 25.9587C2.82305 25.9587 2.14844 25.2964 2.14844 24.4821V9.70312H30.9375V24.4821C30.9375 25.2964 30.2629 25.9587 29.4336 25.9587H3.65234ZM38.7093 51.8906H22.0994C22.5428 50.6627 23.7378 49.7808 25.1384 49.7808H35.6702C37.0709 49.7808 38.2658 50.6627 38.7093 51.8906ZM27.1816 47.6715V45.1404H33.6269V47.6715H27.1816ZM52.8516 39.867C52.8516 41.6116 51.4059 43.031 49.6289 43.031H11.1719C9.3949 43.031 7.94922 41.6116 7.94922 39.867V37.9685H52.8516V39.867Z" fill="#FF8A00"/>
<path d="M27.5136 3.79688H17.5098C16.9166 3.79688 16.4355 4.26906 16.4355 4.85156C16.4355 5.43407 16.9166 5.90625 17.5098 5.90625H27.5136C28.1068 5.90625 28.5879 5.43407 28.5879 4.85156C28.5879 4.26906 28.1068 3.79688 27.5136 3.79688Z" fill="#FF8A00"/>
<path d="M9.26836 4.1059C9.06855 3.90973 8.7914 3.79688 8.50781 3.79688C8.22518 3.79688 7.94921 3.90973 7.7493 4.1059C7.54842 4.30207 7.43456 4.57418 7.43456 4.85156C7.43456 5.12895 7.54842 5.40105 7.7493 5.59723C7.94921 5.7934 8.22518 5.90625 8.50781 5.90625C8.7914 5.90625 9.06855 5.7934 9.26836 5.59723C9.46805 5.40105 9.5831 5.12895 9.5831 4.85156C9.5831 4.57418 9.46816 4.30207 9.26836 4.1059Z" fill="#FF8A00"/>
<path d="M5.60195 4.1059C5.40225 3.90973 5.1251 3.79688 4.84258 3.79688C4.56006 3.79688 4.28291 3.90973 4.08311 4.1059C3.8833 4.30207 3.76836 4.57418 3.76836 4.85156C3.76836 5.12895 3.8832 5.40105 4.08311 5.59723C4.28302 5.7934 4.56006 5.90625 4.84258 5.90625C5.1251 5.90625 5.40225 5.7934 5.60195 5.59723C5.80175 5.40105 5.9168 5.12895 5.9168 4.85156C5.9168 4.57418 5.80186 4.30207 5.60195 4.1059Z" fill="#FF8A00"/>
<path d="M12.9335 4.1059C12.7338 3.90973 12.4576 3.79688 12.1741 3.79688C11.8916 3.79688 11.6155 3.90973 11.4147 4.1059C11.2148 4.30207 11.0999 4.57418 11.0999 4.85156C11.0999 5.12895 11.2147 5.40105 11.4147 5.59723C11.6155 5.7934 11.8916 5.90625 12.1741 5.90625C12.4577 5.90625 12.7338 5.7934 12.9335 5.59723C13.1333 5.40105 13.2483 5.12895 13.2483 4.85156C13.2483 4.57418 13.1334 4.30207 12.9335 4.1059Z" fill="#FF8A00"/>
<path d="M7.74964 17.1939L10.671 14.3257C11.0906 13.9137 11.0906 13.246 10.6711 12.8342C10.2517 12.4223 9.57172 12.4223 9.15181 12.8342L5.47079 16.4482C5.26937 16.6459 5.15615 16.9142 5.15615 17.1939C5.15615 17.4736 5.26937 17.7419 5.47079 17.9397L9.15181 21.5538C9.36161 21.7598 9.6365 21.8627 9.91139 21.8627C10.1863 21.8627 10.4612 21.7598 10.671 21.5538C11.0905 21.1419 11.0905 20.4741 10.671 20.0621L7.74964 17.1939Z" fill="#FF8A00"/>
<path d="M27.6151 16.4481L23.9341 12.8341C23.5145 12.4222 22.8346 12.4222 22.4149 12.8341C21.9954 13.2459 21.9954 13.9138 22.4149 14.3256L25.3362 17.1938L22.4149 20.0621C21.9954 20.4739 21.9954 21.1417 22.4149 21.5537C22.6247 21.7597 22.8996 21.8626 23.1744 21.8626C23.4493 21.8626 23.7242 21.7597 23.934 21.5537L27.6151 17.9396C27.8165 17.7419 27.9297 17.4735 27.9297 17.1938C27.9297 16.9141 27.8165 16.6458 27.6151 16.4481Z" fill="#FF8A00"/>
<path d="M19.6859 11.943C19.1743 11.6479 18.5161 11.8157 18.2155 12.3179L13.0181 21.0012C12.7175 21.5034 12.8885 22.1498 13.4 22.4449C13.571 22.5435 13.7583 22.5904 13.9433 22.5904C14.3116 22.5904 14.6704 22.4043 14.8704 22.07L20.0678 13.3866C20.3684 12.8845 20.1975 12.2381 19.6859 11.943Z" fill="#FF8A00"/>
<path d="M42.0094 15.5672C41.8097 15.37 41.5325 15.2582 41.25 15.2582C40.9675 15.2582 40.6903 15.37 40.4905 15.5672C40.2907 15.7633 40.1758 16.0344 40.1758 16.3128C40.1758 16.5902 40.2906 16.8623 40.4905 17.0585C40.6904 17.2547 40.9675 17.3675 41.25 17.3675C41.5325 17.3675 41.8097 17.2547 42.0094 17.0585C42.2092 16.8623 42.3242 16.5902 42.3242 16.3128C42.3242 16.0344 42.2093 15.7633 42.0094 15.5672Z" fill="#FF8A00"/>
<path d="M16.9083 31.6758H16.7406C16.1474 31.6758 15.6664 32.148 15.6664 32.7304C15.6664 33.3128 16.1474 33.7851 16.7406 33.7851H16.9083C17.5015 33.7851 17.9825 33.3128 17.9825 32.7304C17.9825 32.148 17.5015 31.6758 16.9083 31.6758Z" fill="#FF8A00"/>
</svg>
